# xmcd
#
# Track frame offsets: 
#        150
#        9840
#        22262
#        35865
#        49280
#        62510
#        75197
#        88912
#        100202
#        110997
#
# Disc length: 1643 seconds
#
# Revision: 1
# Processed by: cddbd v1.4PL0 Copyright (c) Steve Scherf et al.
# Submitted via: ExactAudioCopy v0.90b3
#
DISCID=7f06690a
DTITLE=Johnny Paycheck - Johnny Paycheck Sings George Jones
DYEAR=1900
DGENRE=Country
TTITLE0=The Race Is On
TTITLE1=She Thinks I Still Care
TTITLE2=Things Have Gone To Pieces
TTITLE3=Take Me
TTITLE4=When The Grass Grows Over Me
TTITLE5=White Lightning
TTITLE6=She's Mine
TTITLE7=Tender Years
TTITLE8=Walk Through This World With Me
TTITLE9=I'll Follow You (Up To Our Cloud)
EXTD=
EXTT0=
EXTT1=
EXTT2=
EXTT3=
EXTT4=
EXTT5=
EXTT6=
EXTT7=
EXTT8=
EXTT9=
PLAYORDER=
